<svg xmlns="http://www.w3.org/2000/svg" viewBox="0 0 100 100">
  <rect width="100" height="100" rx="20" fill="#0a0a0f"/>
  <rect x="22" y="28" width="56" height="42" rx="10" fill="#7c3aed"/>
  <rect x="22" y="28" width="56" height="16" rx="10" fill="#6d28d9"/>
  <circle cx="37" cy="47" r="7" fill="#22d3ee"/>
  <circle cx="38" cy="45" r="2.5" fill="#fff" opacity=".7"/>
  <circle cx="63" cy="47" r="7" fill="#22d3ee"/>
  <circle cx="64" cy="45" r="2.5" fill="#fff" opacity=".7"/>
  <rect x="44" y="13" width="12" height="17" rx="6" fill="#6d28d9"/>
  <circle cx="50" cy="11" r="7" fill="#22d3ee"/>
  <circle cx="50" cy="11" r="3" fill="#fff" opacity=".8"/>
  <rect x="31" y="62" width="38" height="4" rx="2" fill="#4c1d95"/>
  <rect x="22" y="70" width="56" height="20" rx="10" fill="#5b21b6"/>
  <rect x="32" y="76" width="36" height="8" rx="4" fill="#4c1d95"/>
  <circle cx="38" cy="80" r="3" fill="#22d3ee" opacity=".8"/>
  <circle cx="50" cy="80" r="3" fill="#a78bfa" opacity=".8"/>
  <circle cx="62" cy="80" r="3" fill="#22d3ee" opacity=".8"/>
</svg>
